<?xml version="1.0" encoding="utf-8"?>
<!-- Generator: Adobe Illustrator 24.1.2, SVG Export Plug-In . SVG Version: 6.00 Build 0)  -->
<svg version="1.1" id="Camada_1" xmlns="http://www.w3.org/2000/svg" xmlns:xlink="http://www.w3.org/1999/xlink" x="0px" y="0px"
	 viewBox="0 0 211.43 224.69" style="enable-background:new 0 0 211.43 224.69;" xml:space="preserve">
<style type="text/css">
	.st0{fill:#FE6A00;}
	.st1{fill:#003A3D;}
	.st2{fill:#FE6A01;}
</style>
<path class="st0" d="M147.73,78.85c3.85-14.47,7.7-28.95,11.68-43.94c14.72,3.94,29.36,7.86,45.05,12.05
	c-19.22,11.13-37.5,21.72-55.79,32.31C148.37,79.13,148.05,78.99,147.73,78.85z"/>
<path class="st0" d="M59.77,128.43c-15.03-4.03-29.52-7.91-45.05-12.08c19.07-11.02,37.26-21.54,55.46-32.06
	c0.31,0.18,0.63,0.36,0.94,0.53C67.94,99.34,63.52,113.55,59.77,128.43z"/>
<path class="st0" d="M91.91,72.16c19.21-11.11,37.69-21.79,57.09-33.01c-4.15,15.55-8.07,30.21-12.04,45.07
	C121.83,80.18,107.18,76.25,91.91,72.16z"/>
<path class="st0" d="M126.15,92.16c-18.14,10.5-36.28,21.01-54.42,31.51c-0.3-0.16-0.61-0.33-0.91-0.49
	c3.83-14.4,7.65-28.79,11.65-43.83c14.61,3.89,29.01,7.73,43.41,11.56C125.97,91.32,126.06,91.74,126.15,92.16z"/>
<path class="st1" d="M10.39,107.54c4.11-15.41,7.9-29.6,11.79-44.14c14.52,3.87,28.74,7.66,44.15,11.76
	C47.52,86.05,29.48,96.49,10.39,107.54z"/>
<path class="st1" d="M192.4,116.48c-4.09,15.31-7.87,29.5-11.78,44.15c-14.52-3.88-28.78-7.69-44.16-11.8
	C155.37,137.89,173.37,127.48,192.4,116.48z"/>
<path class="st1" d="M176.07,177.55c-4.03,15.1-7.82,29.31-11.78,44.14c-14.46-3.85-28.74-7.66-44.17-11.77
	C139.1,198.94,157.2,188.47,176.07,177.55z"/>
<path class="st1" d="M26.83,47.47c4.07-15.23,7.9-29.54,11.8-44.16c14.64,3.91,28.8,7.69,44.13,11.79
	C63.79,26.08,45.71,36.55,26.83,47.47z"/>
<path class="st1" d="M87.59,63.36c4.08-15.27,7.88-29.49,11.79-44.14c14.56,3.88,28.8,7.67,44.16,11.76
	C124.67,41.9,106.58,52.37,87.59,63.36z"/>
<path class="st1" d="M208.48,56.99c-3.79,14.16-7.57,28.33-11.48,42.94c-14.66-3.92-28.86-7.71-44.12-11.78
	c18.77-10.87,36.74-21.28,54.72-31.69C207.9,56.64,208.19,56.81,208.48,56.99z"/>
<path class="st1" d="M143.22,95.97c14.65,3.91,29,7.73,44.17,11.78c-18.75,10.86-36.78,21.3-55.9,32.37
	C135.54,124.91,139.31,110.69,143.22,95.97z"/>
<path class="st1" d="M76.01,67.99c-14.81-3.97-28.97-7.77-44.14-11.83c18.89-10.92,36.9-21.34,55.9-32.32
	C83.73,39.02,79.96,53.17,76.01,67.99z"/>
<path class="st1" d="M131.39,101.98c-3.75,14.01-7.49,28.01-11.33,42.36c-14.62-3.91-28.79-7.7-44.14-11.8
	c18.84-10.89,36.65-21.19,54.46-31.48C130.72,101.37,131.06,101.67,131.39,101.98z"/>
<path class="st1" d="M60.71,192.95c17.92-10.35,35.84-20.71,54.79-31.66c-4.07,15.27-7.87,29.47-11.78,44.12
	c-14.41-3.85-28.57-7.62-42.73-11.4C60.91,193.66,60.81,193.31,60.71,192.95z"/>
<path class="st1" d="M54.58,184.91c4.03-15.11,7.82-29.33,11.77-44.12c14.58,3.88,28.92,7.7,44.16,11.76
	C91.53,163.53,73.47,173.98,54.58,184.91z"/>
<path class="st1" d="M126.87,157.05c14.81,3.95,29.03,7.74,44.17,11.77c-18.7,10.83-36.68,21.25-55.86,32.36
	C119.21,185.96,122.95,171.86,126.87,157.05z"/>
<path class="st2" d="M50.74,136.12c-15.05,8.71-29.48,17.06-43.91,25.42c-4.71-8.12-5.07-19.67-1.1-37.33
	C20.48,128.11,35.2,132.01,50.74,136.12z"/>
<path class="st1" d="M43.26,188.96c-12.77-2.6-23.15-8.44-31.91-18.7c14.44-8.37,28.55-16.54,43.64-25.28
	C50.95,160.11,47.16,174.33,43.26,188.96z"/>
</svg>
