<?xml version="1.0" encoding="utf-8"?>
<!-- Generator: Adobe Illustrator 24.1.2, SVG Export Plug-In . SVG Version: 6.00 Build 0)  -->
<svg version="1.1" id="Camada_1" xmlns="http://www.w3.org/2000/svg" xmlns:xlink="http://www.w3.org/1999/xlink" x="0px" y="0px"
	 viewBox="0 0 1071.7 228.3" style="enable-background:new 0 0 1071.7 228.3;" xml:space="preserve">
<style type="text/css">
	.st0{fill:#FFFFFF;}
	.st1{fill:#FE6A00;}
	.st2{fill:#FE6A01;}
</style>
<g>
	<path class="st0" d="M785.6,171.6c-8.6,0-17.1,0-25.7,0c-16.7-22.1-33.5-44.2-51-67.3c0,23.1,0,45.1,0,67.3c-9.5,0-18.5,0-27.7,0
		c0-37.4,0-74.8,0-112.6c8.4,0,17,0,26.1,0c16.5,21.9,33.3,44.2,50.9,67.4c0-23.1,0-45.1,0-67.4c9.4,0,18.3,0,27.4,0
		C785.6,96.3,785.6,133.9,785.6,171.6z"/>
	<path class="st0" d="M571.2,58.8c10,0,19.6,0,29.6,0c0,2.3,0,4.5,0,6.6c0,19.8,0,39.6,0,59.4c0,16.9,14.4,26.6,30.6,21.9
		c8.9-2.6,14.3-10.4,14.4-20.5c0.2-19.8,0.1-39.6,0.1-59.5c0-2.5,0-5,0-7.8c9.9,0,19.6,0,29.3,0c0.8,1.4,0.5,2.7,0.5,4
		c0,20.1,0,40.3,0,60.4c0,5.8-0.6,11.6-2.4,17.2c-5.6,18.1-20.9,30.2-40.5,32c-8.7,0.8-17.3,0.8-25.8-1.4
		c-21.6-5.4-34.8-20.7-35.7-43.6C570.5,104.9,571.2,82.1,571.2,58.8z"/>
	<path class="st0" d="M349.5,77.3c-5.6,6.7-11.2,13.4-16.9,20.2c-18.7-20.2-38-16.9-49.1-6.6c-12.4,11.6-13.2,32.9-1.9,45.7
		c10,11.3,29.4,16.7,51-2.9c5.7,6.1,11.3,12.2,17.2,18.5c-16.5,15.9-35.7,23.9-58.6,19.9c-21.8-3.9-37.2-16.3-44.7-37.4
		c-12.4-35,10.1-71.2,46.9-76.2c19.2-2.6,36.2,2.2,51.3,14.1C346.4,73.9,348.1,75.3,349.5,77.3z"/>
	<path class="st0" d="M486.8,154.9c4.4-6.6,8.9-13.2,13.4-20c2.6,2.1,4.9,4.2,7.4,6.1c4.2,3.1,8.8,5.4,14,6.3
		c8,1.4,14.1-3.3,14.2-11.3c0.2-17.5,0.1-35,0.1-53c-12.9,0-25.6,0-38.6,0c0-8.3,0-16.1,0-24.1c22.7,0,45.3,0,67.9,0
		c1,1.3,0.5,2.9,0.5,4.3c0,23.5,0,47,0,70.5c0,4.4-0.3,8.7-1.4,12.9c-3.8,14.9-13.7,23.4-28.4,25.8
		C516.7,175.4,500.1,170.1,486.8,154.9z"/>
	<path class="st0" d="M387.8,82.8c-11.4,0-22.3,0-33.5,0c0-8.2,0-15.9,0-24c32.2,0,64.4,0,96.8,0c0,7.9,0,15.7,0,23.8
		c-11.1,0-22.1,0-33.5,0c0,29.8,0,59.1,0,88.8c-10.1,0-19.7,0-29.7,0C387.8,142,387.8,112.7,387.8,82.8z"/>
	<path class="st0" d="M791.8,68.3c10,9.7,19.4,18.8,29,28.1c0,24.8,0,49.8,0,75.1c-9.6,0-19.1,0-29,0
		C791.8,137.3,791.8,103.2,791.8,68.3z"/>
	<path class="st1" d="M160.7,78.9c3.9-14.5,7.7-28.9,11.7-43.9c14.7,3.9,29.4,7.9,45.1,12c-19.2,11.1-37.5,21.7-55.8,32.3
		C161.3,79.2,161,79.1,160.7,78.9z"/>
	<path class="st1" d="M72.7,128.5c-15-4-29.5-7.9-45-12.1c19.1-11,37.3-21.5,55.5-32.1c0.3,0.2,0.6,0.4,0.9,0.5
		C80.9,99.4,76.5,113.6,72.7,128.5z"/>
	<path class="st1" d="M104.9,72.3c19.2-11.1,37.7-21.8,57.1-33c-4.1,15.5-8.1,30.2-12,45.1C134.8,80.3,120.1,76.3,104.9,72.3z"/>
	<path class="st1" d="M139.1,92.3c-18.1,10.5-36.3,21-54.4,31.5c-0.3-0.2-0.6-0.3-0.9-0.5c3.8-14.4,7.7-28.8,11.7-43.8
		c14.6,3.9,29,7.7,43.4,11.6C138.9,91.4,139,91.8,139.1,92.3z"/>
	<path class="st0" d="M23.3,107.6c4.1-15.4,7.9-29.6,11.8-44.1c14.5,3.9,28.7,7.7,44.1,11.8C60.5,86.1,42.4,96.6,23.3,107.6z"/>
	<path class="st0" d="M205.4,116.6c-4.1,15.3-7.9,29.5-11.8,44.2c-14.5-3.9-28.8-7.7-44.2-11.8C168.3,138,186.3,127.6,205.4,116.6z"
		/>
	<path class="st0" d="M189,177.6c-4,15.1-7.8,29.3-11.8,44.1c-14.5-3.9-28.7-7.7-44.2-11.8C152.1,199,170.2,188.6,189,177.6z"/>
	<path class="st0" d="M39.8,47.6C43.9,32.3,47.7,18,51.6,3.4c14.6,3.9,28.8,7.7,44.1,11.8C76.7,26.2,58.7,36.6,39.8,47.6z"/>
	<path class="st0" d="M100.5,63.4c4.1-15.3,7.9-29.5,11.8-44.1c14.6,3.9,28.8,7.7,44.2,11.8C137.6,42,119.5,52.5,100.5,63.4z"/>
	<path class="st0" d="M221.4,57.1c-3.8,14.2-7.6,28.3-11.5,42.9c-14.7-3.9-28.9-7.7-44.1-11.8c18.8-10.9,36.7-21.3,54.7-31.7
		C220.8,56.7,221.1,56.9,221.4,57.1z"/>
	<path class="st0" d="M156.2,96.1c14.6,3.9,29,7.7,44.2,11.8c-18.8,10.9-36.8,21.3-55.9,32.4C148.5,125,152.3,110.8,156.2,96.1z"/>
	<path class="st0" d="M89,68.1c-14.8-4-29-7.8-44.1-11.8C63.8,45.4,81.8,35,100.8,24C96.7,39.1,92.9,53.3,89,68.1z"/>
	<path class="st0" d="M144.3,102.1c-3.8,14-7.5,28-11.3,42.4c-14.6-3.9-28.8-7.7-44.1-11.8c18.8-10.9,36.7-21.2,54.5-31.5
		C143.7,101.4,144,101.8,144.3,102.1z"/>
	<path class="st0" d="M73.7,193c17.9-10.4,35.8-20.7,54.8-31.7c-4.1,15.3-7.9,29.5-11.8,44.1c-14.4-3.9-28.6-7.6-42.7-11.4
		C73.9,193.8,73.8,193.4,73.7,193z"/>
	<path class="st0" d="M67.5,185c4-15.1,7.8-29.3,11.8-44.1c14.6,3.9,28.9,7.7,44.2,11.8C104.5,163.6,86.4,174.1,67.5,185z"/>
	<path class="st0" d="M139.8,157.1c14.8,3.9,29,7.7,44.2,11.8c-18.7,10.8-36.7,21.3-55.9,32.4C132.2,186.1,135.9,171.9,139.8,157.1z
		"/>
	<path class="st2" d="M63.7,136.2c-15,8.7-29.5,17.1-43.9,25.4c-4.7-8.1-5.1-19.7-1.1-37.3C33.4,128.2,48.2,132.1,63.7,136.2z"/>
	<path class="st0" d="M56.2,189.1c-12.8-2.6-23.2-8.4-31.9-18.7c14.4-8.4,28.5-16.5,43.6-25.3C63.9,160.2,60.1,174.4,56.2,189.1z"/>
	<path class="st2" d="M820.8,86.4c-9.2-9.2-18.5-18.6-27.5-27.7c8.6,0,17.9,0,27.5,0C820.8,68.2,820.8,77.5,820.8,86.4z"/>
	<path class="st0" d="M920.5,66c-13.9-7.8-28.7-9.7-44.4-7.5c-36.6,5.3-58.7,41.5-46.3,76.2c8.2,23.2,30.7,38.2,57.6,38.3
		c6.5-0.1,12.9-0.8,19.2-2.6c22.9-6.5,39-24.8,42-48.2C951.6,99.5,940.7,77.4,920.5,66z M887.7,147.8c-17.3-0.2-31-14.9-30.9-33.1
		c0.2-17.8,14.5-32.1,31.7-31.8c17,0.3,30.3,14.6,30.2,32.6C918.6,133.8,905,147.9,887.7,147.8z"/>
	<path class="st0" d="M1032.7,135.2c14.1-10.6,17.8-16.5,19.7-31.6c2.9-22.7-10.6-40.8-33.5-43.9c-21.2-2.8-42.5-0.4-64.1-1.3
		c-0.6,10.1-0.4,108.8,0.3,113.1c9.5,0,19.1,0,29,0c0-10.4,0-20.5,0-30.7c7.6,0,14.9,0,22.1,0c5.5,10.5,10.9,20.7,16.2,30.7
		c11.2,0,22,0,33.4,0C1047.9,159.1,1040.2,147.1,1032.7,135.2z M1009.9,116.4c-8.4,0.6-16.9,0.1-25.9,0.1c0-11.1,0-21.5,0-32
		c0-0.6,0.2-1.3,0.3-2.4c9.2,0.2,18.4-0.8,27.4,0.6c8.3,1.3,13.1,8.1,12.8,17.1C1024.2,109.3,1018.8,115.8,1009.9,116.4z"/>
</g>
</svg>
