<?xml version="1.0" encoding="utf-8"?>
<!-- Generator: Adobe Illustrator 24.1.2, SVG Export Plug-In . SVG Version: 6.00 Build 0)  -->
<svg version="1.1" id="Camada_1" xmlns="http://www.w3.org/2000/svg" xmlns:xlink="http://www.w3.org/1999/xlink" x="0px" y="0px"
	 viewBox="0 0 841 417.3" style="enable-background:new 0 0 841 417.3;" xml:space="preserve">
<style type="text/css">
	.st0{fill:#003A3D;}
	.st1{fill:#FE6A01;}
	.st2{fill:#FE6A00;}
</style>
<g>
	<path class="st0" d="M557.9,357.1c-8.5,0-25.2,0-25.2,0s-33.4-44.1-50.7-67.3v68.3c0,0-18.7,0-27.9,0c0-37.9,0-75.8,0-114
		c8.4,0,17,0,26.1,0c16.5,22.2,33.3,44.7,50.8,68.3c0-23.4,0-45.9,0-68.3c9.2,0,17.9,0,26.9,0C557.9,281.6,557.9,319.3,557.9,357.1z
		"/>
	<path class="st0" d="M344.4,244.1h29.8v6.8c-0.3,19.8-0.2,39.6-0.2,59.4c0,16.9,14.4,26.6,30.6,21.9c8.8-2.6,14.3-10.4,14.4-20.5
		c0.2-19.8,0.1-39.6,0.2-59.4v-7.1h29.1c0.8,0.7,0.4,2.1,0.5,3.4c0,20.1,0,40.3,0,60.4c0,5.9-0.6,11.6-2.4,17.2
		c-5.5,18.1-20.8,30.2-40.4,32c-8.7,0.8-17.3,0.8-25.7-1.4c-21.6-5.4-34.8-20.7-35.6-43.6C343.8,290.4,344.4,267.6,344.4,244.1z"/>
	<path class="st0" d="M123.2,262.8c-5.6,6.7-11.2,13.4-16.8,20.2c-18.7-20.2-37.9-16.9-49-6.6c-12.4,11.6-13.2,32.9-1.8,45.7
		c10,11.3,29.3,16.7,50.9-2.9c5.6,6.1,11.3,12.2,17.2,18.5c-16.5,15.9-35.6,23.9-58.5,19.9c-21.8-3.9-37.2-16.3-44.6-37.4
		C8.1,285.2,30.6,249,67.2,244c19.2-2.6,36.1,2.2,51.2,14.1C120.2,259.4,121.8,260.8,123.2,262.8z"/>
	<path class="st0" d="M260.1,339.7c4.4-6.6,8.8-13.2,13.3-19.9c2.5,2.1,4.9,4.2,7.4,6c4.1,3.1,8.7,5.4,13.9,6.3
		c7.9,1.4,14-3.2,14.1-11.2c0.2-17.4,0.1-34.8,0.1-52.8c-12.8,0-25.4,0-38.3,0c0-8.3,0-16,0-24c22.6,0,45,0,67.5,0
		c1,1.3,0.5,2.8,0.5,4.3c0,23.4,0,46.8,0,70.1c0,4.3-0.3,8.6-1.4,12.8c-3.7,14.8-13.6,23.3-28.3,25.7
		C289.7,360.2,273.3,354.8,260.1,339.7z"/>
	<path class="st0" d="M161.7,268.1c-11.5,0-22.8,0-33.9,0c0-8.2,0-15.9,0-24c32.2,0,65,0,96.8,0c0,8,0,15.8,0,24
		c-10.9,0-21.7,0-32.9,0c0,30,0,59.2,0,89c-10.2,0-19.8,0-29.9,0C161.7,327.5,161.7,298,161.7,268.1z"/>
	<path class="st0" d="M564.9,254c10,9.7,19.4,18.8,28.9,28.1c0,24.8,0,49.8,0,75c-9.6,0-19.1,0-28.9,0
		C564.9,322.9,564.9,288.9,564.9,254z"/>
	<path class="st1" d="M593.8,271.7c-9.2-9.2-18.4-18.6-27.5-27.7c8.6,0,17.9,0,27.5,0C593.8,253.5,593.8,262.8,593.8,271.7z"/>
	<path class="st0" d="M693.1,251.6c-13.8-7.8-28.7-9.7-44.3-7.5c-36.5,5.3-58.5,41.5-46.2,76.2c8.2,23.2,30.7,38.2,57.5,38.3
		c6.5-0.1,12.9-0.8,19.2-2.6c22.9-6.5,38.9-24.8,41.9-48.2C724.1,285,713.2,262.9,693.1,251.6z M660.3,333.3
		c-17.3-0.2-31-14.9-30.8-33.1c0.2-17.8,14.4-32.1,31.6-31.8c17,0.3,30.2,14.6,30.1,32.6C691.1,319.3,677.6,333.5,660.3,333.3z"/>
	<path class="st0" d="M804.9,320.7c14-10.6,17.7-16.5,19.7-31.6c2.9-22.7-10.5-40.9-33.4-43.9c-21.1-2.8-42.4-0.4-64-1.3
		c-0.6,10.1-0.4,108.8,0.3,112.1h29c0,0,0-19.7,0-30c7.7,0,15,0,22.2,0c5.6,10.5,11,20.9,16.3,31c11.3,0,33,0,33,0
		S812.5,332.6,804.9,320.7z M782.2,302c-8.4,0.6-16.9,0.1-25.8,0.1c0-11.1,0-21.5,0-32c0-0.6,0.2-1.3,0.3-2.4
		c9.2,0.2,18.3-0.8,27.3,0.6c8.3,1.3,13,8.1,12.7,17.1C796.5,294.8,791.2,301.4,782.2,302z"/>
	<path class="st2" d="M462.5,82c3.9-14.5,7.7-28.9,11.7-43.9c14.7,3.9,29.4,7.9,45,12c-19.2,11.1-37.5,21.7-55.8,32.3
		C463.1,82.3,462.8,82.1,462.5,82z"/>
	<path class="st2" d="M374.5,131.6c-15-4-29.5-7.9-45.1-12.1c19.1-11,37.3-21.5,55.5-32.1c0.3,0.2,0.6,0.4,0.9,0.5
		C382.7,102.5,378.3,116.7,374.5,131.6z"/>
	<path class="st2" d="M406.6,75.3c19.2-11.1,37.7-21.8,57.1-33c-4.1,15.5-8.1,30.2-12,45.1C436.6,83.3,421.9,79.4,406.6,75.3z"/>
	<path class="st2" d="M440.9,95.3c-18.1,10.5-36.3,21-54.4,31.5c-0.3-0.2-0.6-0.3-0.9-0.5c3.8-14.4,7.6-28.8,11.6-43.8
		c14.6,3.9,29,7.7,43.4,11.6C440.7,94.5,440.8,94.9,440.9,95.3z"/>
	<path class="st0" d="M325.1,110.7c4.1-15.4,7.9-29.6,11.8-44.1c14.5,3.9,28.7,7.7,44.1,11.8C362.3,89.2,344.2,99.6,325.1,110.7z"/>
	<path class="st0" d="M507.1,119.6c-4.1,15.3-7.9,29.5-11.8,44.2c-14.5-3.9-28.8-7.7-44.2-11.8C470.1,141,488.1,130.6,507.1,119.6z"
		/>
	<path class="st0" d="M490.8,180.7c-4,15.1-7.8,29.3-11.8,44.1c-14.5-3.9-28.7-7.7-44.2-11.8C453.8,202.1,471.9,191.6,490.8,180.7z"
		/>
	<path class="st0" d="M341.6,50.6c4.1-15.2,7.9-29.5,11.8-44.2c14.6,3.9,28.8,7.7,44.1,11.8C378.5,29.2,360.4,39.7,341.6,50.6z"/>
	<path class="st0" d="M402.3,66.5c4.1-15.3,7.9-29.5,11.8-44.1c14.6,3.9,28.8,7.7,44.2,11.8C439.4,45,421.3,55.5,402.3,66.5z"/>
	<path class="st0" d="M523.2,60.1c-3.8,14.2-7.6,28.3-11.5,42.9c-14.7-3.9-28.9-7.7-44.1-11.8c18.8-10.9,36.7-21.3,54.7-31.7
		C522.6,59.8,522.9,60,523.2,60.1z"/>
	<path class="st0" d="M458,99.1c14.6,3.9,29,7.7,44.2,11.8c-18.8,10.9-36.8,21.3-55.9,32.4C450.3,128,454.1,113.8,458,99.1z"/>
	<path class="st0" d="M390.7,71.1c-14.8-4-29-7.8-44.1-11.8C365.5,48.4,383.5,38,402.5,27C398.5,42.2,394.7,56.3,390.7,71.1z"/>
	<path class="st0" d="M446.1,105.1c-3.8,14-7.5,28-11.3,42.4c-14.6-3.9-28.8-7.7-44.1-11.8c18.8-10.9,36.6-21.2,54.5-31.5
		C445.5,104.5,445.8,104.8,446.1,105.1z"/>
	<path class="st0" d="M375.5,196.1c17.9-10.4,35.8-20.7,54.8-31.7c-4.1,15.3-7.9,29.5-11.8,44.1c-14.4-3.9-28.6-7.6-42.7-11.4
		C375.6,196.8,375.5,196.4,375.5,196.1z"/>
	<path class="st0" d="M369.3,188.1c4-15.1,7.8-29.3,11.8-44.1c14.6,3.9,28.9,7.7,44.2,11.8C406.3,166.7,388.2,177.1,369.3,188.1z"/>
	<path class="st0" d="M441.6,160.2c14.8,3.9,29,7.7,44.2,11.8c-18.7,10.8-36.7,21.3-55.9,32.4C433.9,189.1,437.7,175,441.6,160.2z"
		/>
	<path class="st1" d="M365.5,139.3c-15,8.7-29.5,17.1-43.9,25.4c-4.7-8.1-5.1-19.7-1.1-37.3C335.2,131.3,349.9,135.2,365.5,139.3z"
		/>
	<path class="st0" d="M358,192.1c-12.8-2.6-23.1-8.4-31.9-18.7c14.4-8.4,28.6-16.5,43.6-25.3C365.7,163.3,361.9,177.5,358,192.1z"/>
</g>
<g>
	<path class="st0" d="M19,404.1v-15h-6v-3h16v3h-6v15H19z"/>
	<path class="st0" d="M35,401.1h10v3H31v-18h14v4H35L35,401.1L35,401.1z M35,394.1h9v3h-9V394.1z"/>
	<path class="st0" d="M57.1,404.7c-1.4,0-2.7-0.2-3.9-0.7c-1.2-0.5-2.2-1.1-3.1-2s-1.6-1.9-2.1-3c-0.5-1.1-0.7-2.4-0.7-3.8
		c0-1.4,0.2-2.6,0.7-3.8c0.5-1.1,1.2-2.1,2.1-3c0.9-0.9,1.9-1.5,3.1-2c1.2-0.5,2.5-0.7,3.9-0.7c1.6,0,3,0.3,4.3,0.8
		c1.3,0.5,2.4,1.4,3.2,2.4l-2.7,2.5c-0.6-0.7-1.3-1.3-2.1-1.6c-0.8-0.4-1.6-0.5-2.5-0.5c-0.8,0-1.6,0.1-2.3,0.4
		c-0.7,0.3-1.3,0.7-1.8,1.2c-0.5,0.5-0.9,1.1-1.2,1.9c-0.3,0.7-0.4,1.5-0.4,2.4s0.1,1.7,0.4,2.4c0.3,0.7,0.7,1.3,1.2,1.9
		c0.5,0.5,1.1,0.9,1.8,1.2c0.7,0.3,1.5,0.4,2.3,0.4c0.9,0,1.7-0.2,2.5-0.6c0.8-0.4,1.5-0.9,2.1-1.6l2.7,2.5
		c-0.9,1.1-1.9,1.9-3.2,2.4C60.2,404.4,58.7,404.7,57.1,404.7z"/>
	<path class="st0" d="M66.9,404.1v-18h3.6l11.1,13h-1.7v-13h4v18h-3.2l-10.7-13h2v13H66.9z"/>
	<path class="st0" d="M97.2,404.7c-1.4,0-2.8-0.2-4-0.7c-1.2-0.5-2.3-1.1-3.2-2c-0.9-0.9-1.6-1.9-2.1-3c-0.5-1.1-0.7-2.4-0.7-3.7
		c0-1.4,0.2-2.6,0.7-3.8c0.5-1.1,1.2-2.1,2.1-3c0.9-0.9,1.9-1.5,3.2-2c1.2-0.5,2.5-0.7,4-0.7c1.4,0,2.8,0.2,4,0.7
		c1.2,0.5,2.3,1.1,3.2,2s1.6,1.9,2.1,3c0.5,1.1,0.7,2.4,0.7,3.8c0,1.4-0.2,2.6-0.7,3.8c-0.5,1.2-1.2,2.1-2.1,3s-1.9,1.5-3.2,2
		C100,404.5,98.7,404.7,97.2,404.7z M97.2,401.1c0.8,0,1.6-0.1,2.2-0.4c0.7-0.3,1.3-0.7,1.8-1.2c0.5-0.5,0.9-1.1,1.2-1.9
		c0.3-0.7,0.4-1.5,0.4-2.4c0-0.9-0.1-1.6-0.4-2.4c-0.3-0.7-0.7-1.3-1.2-1.9c-0.5-0.5-1.1-0.9-1.8-1.2c-0.7-0.3-1.4-0.4-2.2-0.4
		c-0.8,0-1.6,0.1-2.3,0.4c-0.7,0.3-1.3,0.7-1.8,1.2c-0.5,0.5-0.9,1.1-1.2,1.9c-0.3,0.7-0.4,1.5-0.4,2.4c0,0.9,0.1,1.6,0.4,2.4
		c0.3,0.7,0.7,1.3,1.2,1.9c0.5,0.5,1.1,0.9,1.8,1.2C95.7,401,96.4,401.1,97.2,401.1z"/>
	<path class="st0" d="M110.8,404.1v-18h4v15h9v3H110.8z"/>
	<path class="st0" d="M134.5,404.7c-1.4,0-2.8-0.2-4-0.7c-1.2-0.5-2.3-1.1-3.2-2c-0.9-0.9-1.6-1.9-2.1-3c-0.5-1.1-0.7-2.4-0.7-3.7
		c0-1.4,0.2-2.6,0.7-3.8c0.5-1.1,1.2-2.1,2.1-3c0.9-0.9,1.9-1.5,3.2-2c1.2-0.5,2.5-0.7,4-0.7s2.8,0.2,4,0.7c1.2,0.5,2.3,1.1,3.2,2
		c0.9,0.9,1.6,1.9,2.1,3c0.5,1.1,0.7,2.4,0.7,3.8c0,1.4-0.2,2.6-0.7,3.8c-0.5,1.2-1.2,2.1-2.1,3c-0.9,0.9-1.9,1.5-3.2,2
		C137.2,404.5,135.9,404.7,134.5,404.7z M134.5,401.1c0.8,0,1.6-0.1,2.2-0.4c0.7-0.3,1.3-0.7,1.8-1.2c0.5-0.5,0.9-1.1,1.2-1.9
		c0.3-0.7,0.4-1.5,0.4-2.4c0-0.9-0.1-1.6-0.4-2.4c-0.3-0.7-0.7-1.3-1.2-1.9c-0.5-0.5-1.1-0.9-1.8-1.2c-0.7-0.3-1.4-0.4-2.2-0.4
		c-0.8,0-1.6,0.1-2.3,0.4c-0.7,0.3-1.3,0.7-1.8,1.2c-0.5,0.5-0.9,1.1-1.2,1.9c-0.3,0.7-0.4,1.5-0.4,2.4c0,0.9,0.1,1.6,0.4,2.4
		c0.3,0.7,0.7,1.3,1.2,1.9c0.5,0.5,1.1,0.9,1.8,1.2C132.9,401,133.7,401.1,134.5,401.1z"/>
	<path class="st0" d="M156.3,404.7c-1.4,0-2.8-0.2-4-0.7c-1.2-0.5-2.3-1.1-3.1-2c-0.9-0.9-1.6-1.9-2.1-3c-0.5-1.1-0.7-2.4-0.7-3.8
		c0-1.4,0.2-2.6,0.7-3.8c0.5-1.1,1.2-2.1,2.1-3c0.9-0.9,2-1.5,3.2-2c1.2-0.5,2.5-0.7,4-0.7c1.6,0,3.1,0.3,4.3,0.8
		c1.3,0.5,2.4,1.3,3.3,2.3l-2.7,2.5c-0.7-0.7-1.4-1.2-2.2-1.6c-0.8-0.3-1.6-0.5-2.6-0.5c-0.9,0-1.7,0.1-2.4,0.4
		c-0.7,0.3-1.4,0.7-1.9,1.2c-0.5,0.5-0.9,1.1-1.2,1.9c-0.3,0.7-0.4,1.5-0.4,2.4c0,0.8,0.1,1.6,0.4,2.3c0.3,0.7,0.7,1.3,1.2,1.9
		c0.5,0.5,1.1,0.9,1.9,1.2c0.7,0.3,1.5,0.4,2.4,0.4c0.8,0,1.6-0.1,2.4-0.4c0.8-0.3,1.6-0.7,2.3-1.4l2.4,3c-1,0.8-2.2,1.3-3.5,1.7
		C158.9,404.5,157.6,404.7,156.3,404.7z M159.7,401.9v-6.8h4v7.4L159.7,401.9z"/>
	<path class="st0" d="M167.7,404.1v-18h4v18H167.7z"/>
	<path class="st0" d="M173.8,404.1l8-18h4.1l8.1,18h-4.3l-6.6-16h1.7l-6.6,16L173.8,404.1L173.8,404.1z M178.1,400.1l1-3h8.8l1,3
		H178.1z"/>
	<path class="st0" d="M195.6,408.1l1.7-6.2l0.6,2.4c-0.7,0-1.3-0.2-1.8-0.7s-0.7-1-0.7-1.8c0-0.8,0.2-1.4,0.7-1.9
		c0.5-0.5,1.1-0.7,1.8-0.7c0.7,0,1.3,0.2,1.8,0.7c0.5,0.5,0.7,1.1,0.7,1.9c0,0.2,0,0.4,0,0.6c0,0.2-0.1,0.5-0.2,0.8
		c-0.1,0.3-0.2,0.7-0.5,1.2l-1.5,3.7L195.6,408.1L195.6,408.1z"/>
	<path class="st0" d="M219.6,404.7c-1.4,0-2.7-0.2-3.9-0.7c-1.2-0.5-2.2-1.1-3.1-2c-0.9-0.9-1.6-1.9-2.1-3c-0.5-1.1-0.7-2.4-0.7-3.8
		c0-1.4,0.2-2.6,0.7-3.8c0.5-1.1,1.2-2.1,2.1-3c0.9-0.9,1.9-1.5,3.1-2c1.2-0.5,2.5-0.7,3.9-0.7c1.6,0,3,0.3,4.3,0.8
		c1.3,0.5,2.4,1.4,3.2,2.4l-2.7,2.5c-0.6-0.7-1.3-1.3-2.1-1.6c-0.8-0.4-1.6-0.5-2.5-0.5c-0.8,0-1.6,0.1-2.3,0.4
		c-0.7,0.3-1.3,0.7-1.8,1.2c-0.5,0.5-0.9,1.1-1.2,1.9c-0.3,0.7-0.4,1.5-0.4,2.4s0.1,1.7,0.4,2.4c0.3,0.7,0.7,1.3,1.2,1.9
		c0.5,0.5,1.1,0.9,1.8,1.2c0.7,0.3,1.5,0.4,2.3,0.4c0.9,0,1.7-0.2,2.5-0.6c0.8-0.4,1.5-0.9,2.1-1.6l2.7,2.5
		c-0.9,1.1-1.9,1.9-3.2,2.4C222.7,404.4,221.2,404.7,219.6,404.7z"/>
	<path class="st0" d="M238.4,404.7c-1.4,0-2.8-0.2-4-0.7c-1.2-0.5-2.3-1.1-3.2-2c-0.9-0.9-1.6-1.9-2.1-3c-0.5-1.1-0.7-2.4-0.7-3.7
		c0-1.4,0.2-2.6,0.7-3.8c0.5-1.1,1.2-2.1,2.1-3c0.9-0.9,1.9-1.5,3.2-2c1.2-0.5,2.5-0.7,4-0.7c1.4,0,2.8,0.2,4,0.7
		c1.2,0.5,2.3,1.1,3.2,2s1.6,1.9,2.1,3c0.5,1.1,0.7,2.4,0.7,3.8c0,1.4-0.2,2.6-0.7,3.8c-0.5,1.2-1.2,2.1-2.1,3s-1.9,1.5-3.2,2
		C241.1,404.5,239.8,404.7,238.4,404.7z M238.4,401.1c0.8,0,1.6-0.1,2.2-0.4c0.7-0.3,1.3-0.7,1.8-1.2s0.9-1.1,1.2-1.9
		c0.3-0.7,0.4-1.5,0.4-2.4c0-0.9-0.1-1.6-0.4-2.4c-0.3-0.7-0.7-1.3-1.2-1.9s-1.1-0.9-1.8-1.2c-0.7-0.3-1.4-0.4-2.2-0.4
		c-0.8,0-1.6,0.1-2.3,0.4c-0.7,0.3-1.3,0.7-1.8,1.2s-0.9,1.1-1.2,1.9c-0.3,0.7-0.4,1.5-0.4,2.4c0,0.9,0.1,1.6,0.4,2.4
		s0.7,1.3,1.2,1.9c0.5,0.5,1.1,0.9,1.8,1.2C236.8,401,237.5,401.1,238.4,401.1z"/>
	<path class="st0" d="M251.5,404.1v-18h3.6l11.1,13h-1.7v-13h4v18h-4.3l-10.3-13h1.6v13H251.5z"/>
	<path class="st0" d="M278.4,404.7c-1.5,0-2.9-0.2-4.2-0.6c-1.3-0.4-2.4-0.9-3.2-1.5l1.4-3.2c0.8,0.6,1.7,1,2.8,1.4
		c1.1,0.4,2.2,0.5,3.2,0.5c0.8,0,1.5-0.1,2-0.3c0.5-0.2,0.9-0.4,1.1-0.7s0.4-0.6,0.4-1c0-0.5-0.2-0.9-0.6-1.2s-0.9-0.5-1.5-0.7
		c-0.6-0.2-1.3-0.4-2.1-0.5s-1.5-0.4-2.2-0.6c-0.7-0.2-1.4-0.6-2.1-0.9c-0.6-0.4-1.1-0.9-1.5-1.5c-0.4-0.6-0.6-1.4-0.6-2.4
		c0-1,0.3-2,0.8-2.9c0.5-0.9,1.4-1.5,2.5-2.1c1.1-0.5,2.6-0.8,4.3-0.8c1.1,0,2.3,0.1,3.4,0.4c1.1,0.3,2.1,0.7,2.9,1.2l-1.3,3.2
		c-0.8-0.5-1.7-0.8-2.5-1c-0.9-0.2-1.7-0.4-2.5-0.4c-0.8,0-1.5,0.1-2,0.3s-0.9,0.4-1.1,0.7c-0.2,0.3-0.3,0.7-0.3,1
		c0,0.5,0.2,0.9,0.6,1.2c0.4,0.3,0.9,0.5,1.5,0.7c0.6,0.2,1.3,0.3,2.1,0.5c0.8,0.2,1.5,0.4,2.3,0.6c0.7,0.2,1.4,0.5,2,0.9
		c0.6,0.4,1.1,0.9,1.5,1.5c0.4,0.6,0.6,1.4,0.6,2.4c0,1-0.3,2-0.8,2.8c-0.6,0.9-1.4,1.5-2.6,2C281.6,404.4,280.1,404.7,278.4,404.7z
		"/>
	<path class="st0" d="M292.4,404.1v-15h-6v-3h16v3h-6v15H292.4z"/>
	<path class="st0" d="M304.4,404.1v-18h7.8c1.6,0,3,0.3,4.2,0.8c1.2,0.5,2.1,1.3,2.7,2.3c0.6,1,0.9,2.1,0.9,3.5
		c0,1.4-0.3,2.5-0.9,3.5c-0.6,1-1.5,1.7-2.7,2.2c-1.2,0.5-2.6,0.8-4.2,0.8h-5.6l1.8-1.8v6.8L304.4,404.1L304.4,404.1z M309.4,398
		l-1.8-1.9h5c1.2,0,2.1-0.3,2.8-0.8s0.9-1.3,0.9-2.2c0-0.9-0.3-1.7-0.9-2.2s-1.5-0.8-2.8-0.8h-5l1.8-1.9V398z M316.3,405.1l-4.8-7
		h4.8l4.8,7H316.3z"/>
	<path class="st0" d="M332.4,404.6c-2.5,0-4.5-0.7-5.9-2.2c-1.4-1.4-2.1-3.5-2.1-6.2v-10.2h4v10.1c0,1.7,0.3,3,1.1,3.7
		c0.7,0.8,1.7,1.2,2.9,1.2c1.3,0,2.2-0.4,3-1.2c0.7-0.8,1.1-2,1.1-3.7v-10.1h4v10.2c0,2.7-0.7,4.8-2.1,6.2
		C336.8,403.9,334.8,404.6,332.4,404.6z"/>
	<path class="st0" d="M353,404.7c-1.4,0-2.7-0.2-3.9-0.7c-1.2-0.5-2.2-1.1-3.1-2s-1.6-1.9-2.1-3c-0.5-1.1-0.7-2.4-0.7-3.8
		c0-1.4,0.2-2.6,0.7-3.8c0.5-1.1,1.2-2.1,2.1-3s1.9-1.5,3.1-2c1.2-0.5,2.5-0.7,3.9-0.7c1.6,0,3,0.3,4.3,0.8c1.3,0.5,2.4,1.4,3.2,2.4
		l-2.7,2.5c-0.6-0.7-1.3-1.3-2.1-1.6c-0.8-0.4-1.6-0.5-2.5-0.5c-0.8,0-1.6,0.1-2.3,0.4c-0.7,0.3-1.3,0.7-1.8,1.2
		c-0.5,0.5-0.9,1.1-1.2,1.9s-0.4,1.5-0.4,2.4s0.1,1.7,0.4,2.4c0.3,0.7,0.7,1.3,1.2,1.9c0.5,0.5,1.1,0.9,1.8,1.2
		c0.7,0.3,1.5,0.4,2.3,0.4c0.9,0,1.7-0.2,2.5-0.6c0.8-0.4,1.5-0.9,2.1-1.6l2.7,2.5c-0.9,1.1-1.9,1.9-3.2,2.4
		C356,404.4,354.5,404.7,353,404.7z M351.5,410.9c-0.5,0-1-0.1-1.4-0.2c-0.5-0.1-0.9-0.3-1.2-0.5l0.7-1.9c0.3,0.1,0.6,0.2,0.9,0.3
		c0.3,0.1,0.6,0.1,1,0.1c0.5,0,0.9-0.1,1.1-0.3c0.2-0.2,0.3-0.4,0.3-0.7c0-0.3-0.1-0.4-0.3-0.6c-0.2-0.2-0.6-0.2-1.1-0.2h-1l0.7-3
		h2.3l-0.4,1.6c0.8,0.1,1.5,0.4,1.8,0.8c0.4,0.4,0.6,0.9,0.6,1.5c0,0.9-0.4,1.6-1.1,2.1C353.8,410.6,352.8,410.9,351.5,410.9z"/>
	<path class="st0" d="M360.6,404.1l8-18h4.1l8.1,18h-4.3l-6.6-16h1.7l-6.6,16L360.6,404.1L360.6,404.1z M365,400.1l1-3h8.8l1,3H365z
		 M372.7,384.8c-0.4,0-0.8-0.1-1.2-0.3c-0.3-0.2-0.7-0.4-0.9-0.6c-0.3-0.2-0.5-0.4-0.8-0.6c-0.2-0.2-0.5-0.3-0.7-0.3
		c-0.4,0-0.6,0.1-0.9,0.4s-0.3,0.6-0.4,1.5h-2c0-1.6,0.3-2.5,0.9-3.2c0.5-0.7,1.3-1,2.2-1c0.4,0,0.8,0.1,1.2,0.3
		c0.4,0.2,0.7,0.4,0.9,0.6c0.3,0.2,0.5,0.4,0.8,0.6c0.2,0.2,0.5,0.3,0.7,0.3c0.4,0,0.7-0.1,0.9-0.4c0.2-0.3,0.3-0.6,0.4-1h2
		c0,1.1-0.3,2-0.8,2.7S373.6,384.8,372.7,384.8z"/>
	<path class="st0" d="M391.4,404.7c-1.4,0-2.8-0.2-4-0.7c-1.2-0.5-2.3-1.1-3.2-2c-0.9-0.9-1.6-1.9-2.1-3c-0.5-1.1-0.7-2.4-0.7-3.7
		c0-1.4,0.2-2.6,0.7-3.8c0.5-1.1,1.2-2.1,2.1-3c0.9-0.9,1.9-1.5,3.2-2c1.2-0.5,2.5-0.7,4-0.7s2.8,0.2,4,0.7c1.2,0.5,2.3,1.1,3.2,2
		c0.9,0.9,1.6,1.9,2.1,3c0.5,1.1,0.7,2.4,0.7,3.8c0,1.4-0.2,2.6-0.7,3.8c-0.5,1.1-1.2,2.1-2.1,3s-1.9,1.5-3.2,2
		C394.1,404.5,392.8,404.7,391.4,404.7z M391.3,401.1c0.8,0,1.6-0.1,2.2-0.4c0.7-0.3,1.3-0.7,1.8-1.2c0.5-0.5,0.9-1.1,1.2-1.9
		c0.3-0.7,0.4-1.5,0.4-2.4c0-0.9-0.1-1.6-0.4-2.4c-0.3-0.7-0.7-1.3-1.2-1.9c-0.5-0.5-1.1-0.9-1.8-1.2c-0.7-0.3-1.4-0.4-2.2-0.4
		s-1.6,0.1-2.3,0.4c-0.7,0.3-1.3,0.7-1.8,1.2s-0.9,1.1-1.2,1.9c-0.3,0.7-0.4,1.5-0.4,2.4c0,0.9,0.1,1.6,0.4,2.4s0.7,1.3,1.2,1.9
		c0.5,0.5,1.1,0.9,1.8,1.2S390.5,401.1,391.3,401.1z"/>
	<path class="st0" d="M420.5,404.7c-1.4,0-2.7-0.2-3.9-0.7c-1.2-0.5-2.2-1.1-3.1-2c-0.9-0.9-1.6-1.9-2.1-3c-0.5-1.1-0.7-2.4-0.7-3.8
		c0-1.4,0.2-2.6,0.7-3.8c0.5-1.1,1.2-2.1,2.1-3s1.9-1.5,3.1-2c1.2-0.5,2.5-0.7,3.9-0.7c1.6,0,3,0.3,4.3,0.8c1.3,0.5,2.4,1.4,3.2,2.4
		l-2.7,2.5c-0.6-0.7-1.3-1.3-2.1-1.6c-0.8-0.4-1.6-0.5-2.5-0.5c-0.8,0-1.6,0.1-2.3,0.4c-0.7,0.3-1.3,0.7-1.8,1.2
		c-0.5,0.5-0.9,1.1-1.2,1.9c-0.3,0.7-0.4,1.5-0.4,2.4s0.1,1.7,0.4,2.4c0.3,0.7,0.7,1.3,1.2,1.9c0.5,0.5,1.1,0.9,1.8,1.2
		s1.5,0.4,2.3,0.4c0.9,0,1.7-0.2,2.5-0.6c0.8-0.4,1.5-0.9,2.1-1.6l2.7,2.5c-0.9,1.1-1.9,1.9-3.2,2.4
		C423.5,404.4,422.1,404.7,420.5,404.7z"/>
	<path class="st0" d="M431.1,404.1v-18h4v18H431.1z"/>
	<path class="st0" d="M444.7,404.1l-7.8-18h4.5l6.8,16h-2.7l6.9-16h4.1l-7.8,18H444.7z"/>
	<path class="st0" d="M458.1,404.1v-18h4v18H458.1z"/>
	<path class="st0" d="M467.1,404.1v-18h4v15h9v3H467.1z"/>
	<path class="st0" d="M494,401.1h10v3h-14v-18h14v4h-10V401.1z M493,394.1h9v3h-9V394.1z"/>
	<path class="st0" d="M523.2,404.7c-1.4,0-2.8-0.2-4-0.7c-1.2-0.5-2.3-1.1-3.1-2c-0.9-0.9-1.6-1.9-2.1-3c-0.5-1.1-0.7-2.4-0.7-3.8
		c0-1.4,0.2-2.6,0.7-3.8c0.5-1.1,1.2-2.1,2.1-3s2-1.5,3.2-2c1.2-0.5,2.5-0.7,4-0.7c1.6,0,3.1,0.3,4.3,0.8c1.3,0.5,2.4,1.3,3.3,2.3
		l-2.7,2.5c-0.7-0.7-1.4-1.2-2.2-1.6c-0.8-0.3-1.6-0.5-2.6-0.5c-0.9,0-1.7,0.1-2.4,0.4c-0.7,0.3-1.4,0.7-1.9,1.2
		c-0.5,0.5-0.9,1.1-1.2,1.9c-0.3,0.7-0.4,1.5-0.4,2.4c0,0.8,0.1,1.6,0.4,2.3c0.3,0.7,0.7,1.3,1.2,1.9c0.5,0.5,1.1,0.9,1.9,1.2
		c0.7,0.3,1.5,0.4,2.4,0.4c0.8,0,1.6-0.1,2.4-0.4s1.6-0.7,2.3-1.4l2.4,3c-1,0.8-2.2,1.3-3.5,1.7
		C525.8,404.5,524.5,404.7,523.2,404.7z M526.9,401.9v-6.8h4v7.4L526.9,401.9z"/>
	<path class="st0" d="M538.9,401.1h10v3h-15v-18h14v4h-9L538.9,401.1L538.9,401.1z M537.9,394.1h9v3h-9V394.1z"/>
	<path class="st0" d="M557.9,404.7c-1.5,0-2.9-0.2-4.2-0.6c-1.3-0.4-2.4-0.9-3.2-1.5l1.4-3.2c0.8,0.6,1.7,1,2.8,1.4
		c1.1,0.4,2.2,0.5,3.2,0.5c0.8,0,1.5-0.1,2-0.3c0.5-0.2,0.9-0.4,1.1-0.7s0.4-0.6,0.4-1c0-0.5-0.2-0.9-0.6-1.2s-0.9-0.5-1.5-0.7
		c-0.6-0.2-1.3-0.4-2.1-0.5c-0.7-0.2-1.5-0.4-2.2-0.6c-0.7-0.2-1.4-0.6-2.1-0.9c-0.6-0.4-1.1-0.9-1.5-1.5s-0.6-1.4-0.6-2.4
		c0-1,0.3-2,0.8-2.9c0.5-0.9,1.4-1.5,2.5-2.1c1.1-0.5,2.6-0.8,4.3-0.8c1.1,0,2.3,0.1,3.4,0.4s2.1,0.7,2.9,1.2l-1.3,3.2
		c-0.8-0.5-1.7-0.8-2.5-1c-0.9-0.2-1.7-0.4-2.5-0.4c-0.8,0-1.5,0.1-2,0.3s-0.9,0.4-1.1,0.7c-0.2,0.3-0.3,0.7-0.3,1
		c0,0.5,0.2,0.9,0.6,1.2c0.4,0.3,0.9,0.5,1.5,0.7c0.6,0.2,1.3,0.3,2.1,0.5s1.5,0.4,2.3,0.6c0.7,0.2,1.4,0.5,2,0.9
		c0.6,0.4,1.1,0.9,1.5,1.5c0.4,0.6,0.6,1.4,0.6,2.4c0,1-0.3,2-0.8,2.8c-0.6,0.9-1.4,1.5-2.6,2C561,404.4,559.6,404.7,557.9,404.7z"
		/>
	<path class="st0" d="M571.8,404.1v-15h-6v-3h16v3h-6v15H571.8z"/>
	<path class="st0" d="M581,404.1l8-18h4.1l8.1,18h-4.3l-6.6-16h1.7l-6.6,16L581,404.1L581,404.1z M585.3,400.1l1-3h8.8l1,3H585.3z
		 M593,384.8c-0.4,0-0.8-0.1-1.2-0.3c-0.3-0.2-0.7-0.4-0.9-0.6c-0.3-0.2-0.5-0.4-0.8-0.6c-0.2-0.2-0.5-0.3-0.7-0.3
		c-0.4,0-0.6,0.1-0.9,0.4c-0.2,0.3-0.3,0.6-0.4,1.5h-2c0-1.6,0.3-2.5,0.9-3.2c0.5-0.7,1.3-1,2.2-1c0.4,0,0.8,0.1,1.2,0.3
		c0.4,0.2,0.7,0.4,0.9,0.6c0.3,0.2,0.5,0.4,0.8,0.6c0.2,0.2,0.5,0.3,0.7,0.3c0.4,0,0.7-0.1,0.9-0.4c0.2-0.3,0.3-0.6,0.4-1h2
		c0,1.1-0.3,2-0.8,2.7C594.7,384.5,593.9,384.8,593,384.8z"/>
	<path class="st0" d="M611.7,404.7c-1.4,0-2.8-0.2-4-0.7c-1.2-0.5-2.3-1.1-3.2-2c-0.9-0.9-1.6-1.9-2.1-3c-0.5-1.1-0.7-2.4-0.7-3.7
		c0-1.4,0.2-2.6,0.7-3.8c0.5-1.1,1.2-2.1,2.1-3c0.9-0.9,1.9-1.5,3.2-2c1.2-0.5,2.5-0.7,4-0.7s2.8,0.2,4,0.7c1.2,0.5,2.3,1.1,3.2,2
		c0.9,0.9,1.6,1.9,2.1,3c0.5,1.1,0.7,2.4,0.7,3.8c0,1.4-0.2,2.6-0.7,3.8c-0.5,1.1-1.2,2.1-2.1,3s-1.9,1.5-3.2,2
		C614.4,404.5,613.1,404.7,611.7,404.7z M611.7,401.1c0.8,0,1.6-0.1,2.2-0.4c0.7-0.3,1.3-0.7,1.8-1.2c0.5-0.5,0.9-1.1,1.2-1.9
		c0.3-0.7,0.4-1.5,0.4-2.4c0-0.9-0.1-1.6-0.4-2.4s-0.7-1.3-1.2-1.9c-0.5-0.5-1.1-0.9-1.8-1.2c-0.7-0.3-1.4-0.4-2.2-0.4
		c-0.8,0-1.6,0.1-2.3,0.4c-0.7,0.3-1.3,0.7-1.8,1.2c-0.5,0.5-0.9,1.1-1.2,1.9c-0.3,0.7-0.4,1.5-0.4,2.4c0,0.9,0.1,1.6,0.4,2.4
		s0.7,1.3,1.2,1.9c0.5,0.5,1.1,0.9,1.8,1.2S610.9,401.1,611.7,401.1z"/>
	<path class="st0" d="M635.7,401.1h11v3h-15v-18h14v4h-10L635.7,401.1L635.7,401.1z M635.7,394.1h9v3h-9V394.1z"/>
	<path class="st0" d="M649.7,404.1v-18h3.5l7.8,13h-1.9l7.7-13h2.8v18h-4l0-12h0.8l-6,10h-1.8l-6.1-10h1.2v12H649.7z"/>
	<path class="st0" d="M674.6,404.1v-18h7.8c1.6,0,3,0.3,4.1,0.8c1.2,0.5,2.1,1.3,2.7,2.2c0.6,1,0.9,2.1,0.9,3.5
		c0,1.4-0.3,2.5-0.9,3.5c-0.6,1-1.5,1.7-2.7,2.2c-1.2,0.5-2.5,0.8-4.1,0.8h-5.6l1.8-1.9v6.9H674.6z M678.6,398l-1.8-1.9h5
		c1.2,0,2.1-0.3,2.8-0.8s0.9-1.3,0.9-2.2c0-0.9-0.3-1.7-0.9-2.2s-1.5-0.8-2.8-0.8h-5l1.8-1.9V398z"/>
	<path class="st0" d="M693.6,404.1v-18h7.8c1.6,0,3,0.3,4.2,0.8c1.2,0.5,2.1,1.3,2.7,2.3c0.6,1,1,2.1,1,3.5c0,1.4-0.3,2.5-1,3.5
		c-0.6,1-1.5,1.7-2.7,2.2c-1.2,0.5-2.6,0.8-4.2,0.8h-5.6l1.8-1.8v6.8L693.6,404.1L693.6,404.1z M697.6,398l-1.8-1.9h5
		c1.2,0,2.1-0.3,2.8-0.8s0.9-1.3,0.9-2.2c0-0.9-0.3-1.7-0.9-2.2s-1.5-0.8-2.8-0.8h-5l1.8-1.9V398z M704.6,405.1l-4.8-7h4.8l4.8,7
		H704.6z"/>
	<path class="st0" d="M716.5,401.1h10v3h-15v-18h14v4h-9L716.5,401.1L716.5,401.1z M715.5,394.1h9v3h-9V394.1z"/>
	<path class="st0" d="M735.5,404.7c-1.5,0-2.9-0.2-4.2-0.6c-1.3-0.4-2.4-0.9-3.2-1.5l1.4-3.2c0.8,0.6,1.7,1,2.8,1.4
		c1.1,0.4,2.2,0.5,3.2,0.5c0.8,0,1.5-0.1,2-0.3c0.5-0.2,0.9-0.4,1.1-0.7c0.2-0.3,0.4-0.6,0.4-1c0-0.5-0.2-0.9-0.6-1.2
		s-0.9-0.5-1.5-0.7c-0.6-0.2-1.3-0.4-2.1-0.5c-0.7-0.2-1.5-0.4-2.2-0.6c-0.7-0.2-1.4-0.6-2.1-0.9c-0.6-0.4-1.1-0.9-1.5-1.5
		s-0.6-1.4-0.6-2.4c0-1,0.3-2,0.8-2.9c0.5-0.9,1.4-1.5,2.5-2.1c1.1-0.5,2.6-0.8,4.3-0.8c1.1,0,2.3,0.1,3.4,0.4s2.1,0.7,2.9,1.2
		l-1.3,3.2c-0.8-0.5-1.7-0.8-2.5-1c-0.9-0.2-1.7-0.4-2.5-0.4c-0.8,0-1.5,0.1-2,0.3c-0.5,0.2-0.9,0.4-1.1,0.7c-0.2,0.3-0.3,0.7-0.3,1
		c0,0.5,0.2,0.9,0.6,1.2c0.4,0.3,0.9,0.5,1.5,0.7c0.6,0.2,1.3,0.3,2.1,0.5s1.5,0.4,2.3,0.6c0.7,0.2,1.4,0.5,2,0.9
		c0.6,0.4,1.1,0.9,1.5,1.5c0.4,0.6,0.6,1.4,0.6,2.4c0,1-0.3,2-0.8,2.8c-0.6,0.9-1.4,1.5-2.6,2C738.7,404.4,737.2,404.7,735.5,404.7z
		"/>
	<path class="st0" d="M743.8,404.1l8-18h4.1l8.1,18h-4.3l-6.6-16h1.7l-6.6,16L743.8,404.1L743.8,404.1z M748.1,400.1l1-3h8.8l1,3
		H748.1z"/>
	<path class="st0" d="M766.4,404.1v-18h7.8c1.6,0,3,0.3,4.2,0.8c1.2,0.5,2.1,1.3,2.7,2.3c0.6,1,1,2.1,1,3.5c0,1.4-0.3,2.5-1,3.5
		c-0.6,1-1.5,1.7-2.7,2.2c-1.2,0.5-2.6,0.8-4.2,0.8h-5.6l1.8-1.8v6.8L766.4,404.1L766.4,404.1z M770.4,398l-1.8-1.9h5
		c1.2,0,2.1-0.3,2.8-0.8s0.9-1.3,0.9-2.2c0-0.9-0.3-1.7-0.9-2.2s-1.5-0.8-2.8-0.8h-5l1.8-1.9V398z M777.5,405.1l-4.8-7h4.8l4.8,7
		H777.5z"/>
	<path class="st0" d="M785.4,404.1v-18h4v18H785.4z"/>
	<path class="st0" d="M791.3,404.1l8-18h4.1l8.1,18h-4.3l-6.6-16h1.7l-6.6,16L791.3,404.1L791.3,404.1z M795.6,400.1l1-3h8.8l1,3
		H795.6z"/>
	<path class="st0" d="M813.3,404.1v-18h4v15h9v3H813.3z"/>
</g>
</svg>
